<svg width="100" height="31" viewBox="0 0 100 31" fill="none" xmlns="http://www.w3.org/2000/svg">
<path fill-rule="evenodd" clip-rule="evenodd" d="M43.8462 0.104004H0V30.104H43.8462L55.3846 15.104L43.8462 0.104004ZM19.6567 13.0752C19.5886 13.0207 19.5215 12.9662 19.4547 12.9121C19.286 12.7753 19.1199 12.6407 18.949 12.5116C18.4829 12.1558 17.9766 11.8725 17.3959 11.7462C16.7549 11.606 16.1076 11.5552 15.4681 11.7493C14.556 12.0249 13.9212 12.6255 13.5015 13.4618C13.1531 14.1579 13.0602 14.8956 13.1516 15.6625C13.2243 16.2631 13.4179 16.8206 13.7725 17.315C14.3176 18.0742 15.0608 18.5131 15.9899 18.6286C16.8261 18.7333 17.6359 18.6286 18.4024 18.2621C18.6641 18.1366 18.6641 18.1343 18.6641 17.8453V17.8401C18.6641 17.7697 18.6643 17.6995 18.6645 17.6294V17.6292V17.629V17.6289C18.6648 17.4889 18.6651 17.3491 18.6641 17.2087C18.6639 17.1805 18.6643 17.1564 18.6646 17.1359C18.6656 17.0774 18.666 17.0474 18.6512 17.0322C18.6355 17.0161 18.6028 17.0165 18.5356 17.0173C18.5187 17.0175 18.4997 17.0177 18.4783 17.0177H16.0472C16.0255 17.0177 16.0062 17.018 15.9892 17.0182C15.921 17.019 15.8878 17.0194 15.872 17.0031C15.857 16.9877 15.8577 16.9573 15.8589 16.8979C15.8593 16.8781 15.8598 16.8551 15.8598 16.8283C15.8588 16.1815 15.8591 15.5347 15.8595 14.8879C15.8597 14.5645 15.8598 14.241 15.8598 13.9176C15.8598 13.9059 15.8602 13.894 15.8605 13.8821L15.8605 13.882C15.8612 13.8579 15.8619 13.8335 15.8598 13.8098C15.8552 13.7529 15.8753 13.7221 15.9373 13.7282C15.9611 13.7303 15.9856 13.7296 16.0098 13.7289C16.0219 13.7286 16.0338 13.7282 16.0457 13.7282H22.1915C22.2318 13.7282 22.2658 13.7359 22.2597 13.7867C22.2569 13.8173 22.2762 13.8379 22.2959 13.8589C22.3199 13.8844 22.3445 13.9105 22.3309 13.9561C22.3191 13.9954 22.3221 14.0383 22.3251 14.0814C22.3264 14.1008 22.3278 14.1203 22.3278 14.1394L22.3277 15.2449C22.3274 16.7187 22.3272 18.1932 22.3309 19.6666C22.3309 19.7867 22.2937 19.8622 22.2024 19.9377C21.058 20.8848 19.7713 21.547 18.3157 21.875C17.4548 22.0691 16.583 22.123 15.7019 22.0521C14.6613 21.969 13.6719 21.7025 12.7583 21.1974C11.0813 20.2703 10.0252 18.8627 9.539 17.0254C9.32531 16.2138 9.26027 15.3868 9.3284 14.5521C9.5839 11.4567 11.761 9.04187 14.6784 8.37041C15.5114 8.17791 16.3523 8.15019 17.2008 8.20717C17.8512 8.25183 18.4907 8.35347 19.1163 8.53828C20.0531 8.81702 20.88 9.29752 21.6325 9.91353C21.7208 9.98592 21.8075 10.0583 21.8927 10.1322C22.0011 10.2246 22.0042 10.277 21.9097 10.3909C21.4359 10.9608 20.962 11.529 20.4867 12.0973C20.2497 12.3822 20.0128 12.6671 19.7744 12.9505C19.7682 12.9584 19.7622 12.9665 19.756 12.9748C19.7298 13.0102 19.7019 13.0478 19.6567 13.0752ZM31.7515 8.18092C33.5152 8.19478 35.2216 8.81542 36.654 10.1183C37.7658 11.1316 38.4471 12.3945 38.7196 13.8683C39.0231 15.5084 38.8048 17.0793 37.9903 18.5438C37.024 20.281 35.5499 21.3945 33.6267 21.8981C31.9714 22.3323 30.33 22.2446 28.7459 21.587C26.6834 20.7292 25.3502 19.1891 24.7246 17.0731C24.1656 15.1804 24.3684 13.3401 25.3687 11.6244C26.3427 9.95197 27.8091 8.90474 29.6828 8.41654C30.3285 8.24868 30.937 8.18246 31.7515 8.18092ZM31.3334 11.703C30.3656 11.7246 29.3684 12.2759 28.7444 13.4263C28.3201 14.2071 28.221 15.0495 28.3821 15.9196C28.509 16.6065 28.8079 17.2148 29.3034 17.7138C30.0761 18.493 31.0222 18.7995 32.1061 18.6748C33.2272 18.5469 34.0603 17.974 34.5945 16.9899C35.0482 16.1522 35.1427 15.2559 34.9305 14.3334C34.5806 12.8026 33.2969 11.6984 31.3334 11.703Z" fill="#FF6B0A"/>
<path fill-rule="evenodd" clip-rule="evenodd" d="M99.2309 0.104004H55.3848V30.104H99.2309V0.104004ZM69.7687 8.36394V14.9076V21.4204C69.7687 21.4343 69.769 21.4482 69.7694 21.462L69.7694 21.4621V21.4621C69.77 21.4897 69.7707 21.517 69.7687 21.5436C69.7625 21.6191 69.7826 21.6637 69.8693 21.6514C69.89 21.6494 69.9106 21.65 69.9313 21.6507C69.9416 21.6511 69.9519 21.6514 69.9622 21.6514C70.3278 21.6514 70.6936 21.6516 71.0595 21.6518H71.0599H71.0602H71.0629C71.7946 21.6521 72.5268 21.6524 73.2589 21.6514C73.282 21.6514 73.3024 21.6517 73.3205 21.6519C73.391 21.6528 73.4253 21.6532 73.4416 21.6363C73.457 21.6203 73.4563 21.5887 73.455 21.5273V21.5272C73.4545 21.5065 73.454 21.4824 73.454 21.4543V8.38242C73.454 8.37216 73.4537 8.36189 73.4533 8.35162C73.4526 8.33109 73.452 8.31055 73.454 8.29002C73.4618 8.21302 73.4354 8.17298 73.3518 8.18222C73.3354 8.18426 73.3182 8.18359 73.3008 8.18291L73.2949 8.18268C73.2881 8.18243 73.2813 8.18222 73.2744 8.18222C72.905 8.18222 72.5354 8.18205 72.1658 8.18188H72.1656H72.1655C71.4258 8.18153 70.6859 8.18119 69.9467 8.18222C69.9248 8.18222 69.9056 8.18193 69.8887 8.18168H69.8886C69.8277 8.18077 69.7971 8.18031 69.7819 8.19538C69.7667 8.21057 69.7672 8.24155 69.7681 8.30375C69.7684 8.32123 69.7687 8.34118 69.7687 8.36394ZM88.1242 8.18267H82.6272C80.7953 8.18267 78.9635 8.18267 77.1332 8.18113C77.1257 8.18113 77.1182 8.18118 77.1107 8.18125C77.1043 8.18131 77.098 8.18139 77.0916 8.18147C77.0643 8.18181 77.0371 8.18215 77.0093 8.18113C76.9474 8.17805 76.9257 8.20731 76.9303 8.26429C76.9314 8.28169 76.931 8.2984 76.9307 8.31534C76.9305 8.3239 76.9303 8.33251 76.9303 8.34129V11.4676L76.9302 11.5C76.9299 11.567 76.9298 11.6001 76.9462 11.6162C76.9622 11.6319 76.9939 11.6316 77.0563 11.6311L77.0991 11.6308H80.5522C80.665 11.6308 80.7207 11.6308 80.7483 11.6587C80.7752 11.6859 80.7752 11.7398 80.7752 11.8464V21.4855C80.7752 21.504 80.775 21.5204 80.7747 21.535V21.5351C80.774 21.5903 80.7735 21.6193 80.7878 21.6344C80.8034 21.6509 80.8368 21.6508 80.9067 21.6504L80.9409 21.6503H80.9873H84.2546C84.3586 21.6503 84.41 21.6503 84.4355 21.6246C84.4606 21.5993 84.4606 21.5493 84.4606 21.4501V11.811C84.4606 11.7902 84.4603 11.7718 84.46 11.7555L84.46 11.7553C84.4591 11.6958 84.4586 11.6648 84.4739 11.6488C84.4904 11.6314 84.5255 11.6316 84.5988 11.6321L84.6448 11.6324H88.1599C88.3116 11.6324 88.3116 11.6324 88.3132 11.483V11.4368V8.37209C88.3132 8.3508 88.3134 8.33187 88.3136 8.31505V8.31488C88.3144 8.24718 88.3148 8.21355 88.2982 8.19708C88.2818 8.18081 88.2488 8.18126 88.1833 8.18216H88.1832C88.1659 8.1824 88.1464 8.18267 88.1242 8.18267Z" fill="#010101"/>
</svg>
